<?xml version="1.0" encoding="UTF-8"?>
<svg xmlns="http://www.w3.org/2000/svg" xmlns:xlink="http://www.w3.org/1999/xlink" width="511pt" height="90pt" viewBox="0 0 511 90" version="1.1">
<g id="surface1">
<path style=" stroke:none;fill-rule:nonzero;fill:rgb(17.254902%,17.254902%,17.254902%);fill-opacity:1;" d="M 52.804688 28.109375 C 52.804688 33.757812 51.421875 38.636719 48.652344 42.742188 C 46.347656 46.195312 43.492188 48.640625 40.105469 50.089844 C 42.285156 51.039062 44.0625 52.609375 45.433594 54.789062 C 46.804688 56.96875 47.484375 59.289062 47.484375 61.753906 C 47.484375 67.886719 44.300781 72.378906 37.925781 75.226562 C 33 77.441406 26.539062 78.546875 18.527344 78.546875 C 11.632812 78.546875 4.230469 77.878906 -3.683594 76.550781 C -3.886719 69.265625 -4.324219 57.390625 -4.976562 40.921875 C -5.425781 32.078125 -6.101562 19.949219 -7 4.550781 C -1.136719 3.214844 6.285156 2.546875 15.257812 2.546875 C 40.289062 2.546875 52.804688 11.066406 52.804688 28.109375 Z M 33.53125 36.992188 C 33.53125 34.609375 32.613281 32.773438 30.769531 31.507812 C 29.105469 30.359375 26.925781 29.820312 24.226562 29.882812 L 23.585938 43.882812 C 30.214844 44.128906 33.53125 41.835938 33.53125 36.992188 Z M 32.203125 59.511719 C 32.203125 55.757812 29.714844 53.878906 24.742188 53.878906 C 24.226562 53.878906 23.699219 53.910156 23.160156 53.972656 L 22.898438 65.882812 C 29.097656 66.15625 32.203125 64.035156 32.203125 59.511719 Z M 32.203125 59.511719 "/>
<path style=" stroke:none;fill-rule:nonzero;fill:rgb(17.254902%,17.254902%,17.254902%);fill-opacity:1;" d="M 118.585938 38.863281 C 118.585938 46.496094 117.179688 53.410156 114.375 59.589844 C 111.367188 66.199219 107.175781 70.839844 101.808594 73.519531 C 102.996094 74.652344 104.660156 76.148438 106.8125 78.019531 C 109.765625 80.15625 112.359375 81.773438 114.601562 82.878906 C 113.425781 84.078125 111.472656 85.851562 108.746094 88.179688 C 107.183594 89.289062 105.039062 90.519531 102.308594 91.878906 C 100.121094 90.113281 98.316406 88.320312 96.894531 86.511719 C 95.230469 84.339844 94.042969 82.460938 93.339844 80.878906 C 93.972656 80.21875 94.941406 78.804688 96.234375 76.640625 C 93.203125 77.914062 90.167969 78.546875 87.140625 78.546875 C 77.550781 78.546875 69.785156 74.539062 63.847656 66.523438 C 58.257812 59.011719 55.460938 49.789062 55.460938 38.863281 C 55.460938 27.097656 58.503906 17.886719 64.597656 11.242188 C 70.3125 5 77.828125 1.878906 87.140625 1.878906 C 96.261719 1.878906 103.699219 5.035156 109.449219 11.339844 C 115.542969 18.015625 118.585938 27.183594 118.585938 38.863281 Z M 95.996094 47.257812 C 95.996094 38.785156 93.140625 34.542969 87.425781 34.542969 C 84.355469 34.542969 82.058594 35.808594 80.53125 38.339844 C 79.195312 40.570312 78.59375 43.574219 78.71875 47.347656 C 78.867188 50.851562 79.648438 54.035156 81.046875 56.902344 C 82.691406 60.222656 84.730469 61.882812 87.144531 61.882812 C 89.535156 61.882812 91.644531 60.1875 93.480469 56.804688 C 95.160156 53.734375 95.996094 50.546875 95.996094 47.257812 Z M 95.996094 47.257812 "/>
<path style=" stroke:none;fill-rule:nonzero;fill:rgb(17.254902%,17.254902%,17.254902%);fill-opacity:1;" d="M 145.167969 69.238281 C 145.167969 71.699219 144.121094 73.757812 142.023438 75.410156 C 139.929688 77.054688 137.464844 77.878906 134.632812 77.878906 C 131.664062 77.878906 129.164062 77.054688 127.109375 75.402344 C 124.972656 73.722656 123.90625 71.632812 123.90625 69.136719 C 123.90625 66.621094 124.925781 64.554688 126.976562 62.949219 C 129.023438 61.347656 131.574219 60.546875 134.632812 60.546875 C 137.492188 60.546875 139.964844 61.355469 142.039062 62.972656 C 144.125 64.589844 145.167969 66.675781 145.167969 69.238281 Z M 145.167969 69.238281 "/>
<path style=" stroke:none;fill-rule:nonzero;fill:rgb(17.254902%,17.254902%,17.254902%);fill-opacity:1;" d="M 226.234375 4.550781 C 225.832031 11.109375 225.25 23.078125 224.484375 40.449219 C 224.082031 51.136719 223.78125 63.167969 223.578125 76.550781 L 206.96875 76.550781 L 206.300781 54.472656 L 189.355469 78.546875 L 171.082031 54.660156 L 170.421875 76.550781 L 153.804688 76.550781 C 153.609375 69.382812 153.222656 57.289062 152.652344 40.269531 C 152.257812 30.453125 151.535156 18.546875 150.480469 4.550781 L 177.0625 4.550781 C 178.023438 6.828125 179.667969 10.511719 182.003906 15.609375 C 183.796875 19.238281 186.25 23.511719 189.355469 28.457031 C 190.695312 26.324219 193.15625 21.9375 196.742188 15.277344 C 198.019531 12.8125 199.660156 9.230469 201.648438 4.550781 Z M 226.234375 4.550781 "/>
<path style=" stroke:none;fill-rule:nonzero;fill:rgb(17.254902%,17.254902%,17.254902%);fill-opacity:1;" d="M 287.367188 76.550781 L 261.628906 76.550781 L 259.5625 70.152344 C 258.875 70.4375 257.152344 71.410156 254.398438 73.074219 C 252.625 74.285156 250.65625 75.894531 248.5 77.914062 L 245.890625 72.191406 C 245.371094 71.058594 244.625 69.46875 243.648438 67.421875 L 241.605469 76.550781 L 227.570312 76.550781 C 229.550781 68.828125 232.621094 56.109375 236.777344 38.371094 C 239.320312 26.488281 241.449219 15.214844 243.152344 4.550781 L 271.257812 4.550781 C 272.152344 9.457031 274.582031 20.890625 278.566406 38.839844 C 280.683594 48.207031 283.621094 60.777344 287.367188 76.550781 Z M 258.039062 61.171875 C 257.488281 59.527344 256.53125 56.855469 255.15625 53.148438 C 254.3125 51.101562 253.046875 48.277344 251.339844 44.667969 C 250.628906 46.476562 249.503906 49.4375 247.980469 53.550781 C 247.144531 55.914062 246.144531 59.140625 244.984375 63.210938 C 245.933594 63.210938 248.09375 63.019531 251.445312 62.640625 C 253.46875 62.351562 255.660156 61.867188 258.039062 61.171875 Z M 258.039062 61.171875 "/>
<path style=" stroke:none;fill-rule:nonzero;fill:rgb(17.254902%,17.254902%,17.254902%);fill-opacity:1;" d="M 345.84375 4.550781 L 344.515625 33.882812 C 343.355469 33.757812 341.488281 33.59375 338.921875 33.398438 C 337.339844 33.335938 334.78125 33.277344 331.226562 33.214844 C 331.042969 35.042969 330.710938 39.488281 330.25 46.527344 C 329.902344 53.339844 329.339844 63.34375 328.566406 76.550781 L 305.980469 76.550781 C 305.769531 70.257812 305.375 60.371094 304.804688 46.890625 C 304.539062 42.222656 304.265625 37.667969 303.984375 33.214844 L 296.664062 33.398438 L 290.03125 33.882812 L 288.703125 4.550781 Z M 345.84375 4.550781 "/>
<path style=" stroke:none;fill-rule:nonzero;fill:rgb(17.254902%,17.254902%,17.254902%);fill-opacity:1;" d="M 372.425781 69.238281 C 372.425781 71.699219 371.378906 73.757812 369.277344 75.410156 C 367.191406 77.054688 364.722656 77.878906 361.890625 77.878906 C 358.925781 77.878906 356.421875 77.054688 354.371094 75.402344 C 352.234375 73.722656 351.164062 71.632812 351.164062 69.136719 C 351.164062 66.621094 352.183594 64.554688 354.238281 62.949219 C 356.28125 61.347656 358.832031 60.546875 361.890625 60.546875 C 364.75 60.546875 367.226562 61.355469 369.296875 62.972656 C 371.386719 64.589844 372.425781 66.675781 372.425781 69.238281 Z M 372.425781 69.238281 "/>
<path style=" stroke:none;fill-rule:nonzero;fill:rgb(17.254902%,17.254902%,17.254902%);fill-opacity:1;" d="M 437.546875 28.109375 C 437.546875 33.757812 436.160156 38.636719 433.390625 42.742188 C 431.085938 46.195312 428.238281 48.640625 424.851562 50.089844 C 427.03125 51.039062 428.800781 52.609375 430.171875 54.789062 C 431.542969 56.96875 432.230469 59.289062 432.230469 61.753906 C 432.230469 67.886719 429.039062 72.378906 422.664062 75.226562 C 417.746094 77.441406 411.28125 78.546875 403.273438 78.546875 C 396.378906 78.546875 388.976562 77.878906 381.0625 76.550781 C 380.859375 69.265625 380.425781 57.390625 379.765625 40.921875 C 379.3125 32.078125 378.640625 19.949219 377.738281 4.550781 C 383.609375 3.214844 391.023438 2.546875 400.007812 2.546875 C 425.035156 2.546875 437.546875 11.066406 437.546875 28.109375 Z M 418.28125 36.992188 C 418.28125 34.609375 417.359375 32.773438 415.519531 31.507812 C 413.851562 30.359375 411.671875 29.820312 408.972656 29.882812 L 408.328125 43.882812 C 414.960938 44.128906 418.28125 41.835938 418.28125 36.992188 Z M 416.945312 59.511719 C 416.945312 55.757812 414.457031 53.878906 409.480469 53.878906 C 408.96875 53.878906 408.445312 53.910156 407.90625 53.972656 L 407.644531 65.882812 C 413.84375 66.15625 416.945312 64.035156 416.945312 59.511719 Z M 416.945312 59.511719 "/>
<path style=" stroke:none;fill-rule:nonzero;fill:rgb(17.254902%,17.254902%,17.254902%);fill-opacity:1;" d="M 504 31.386719 C 504 37.109375 502.382812 42.179688 499.15625 46.597656 C 496.308594 50.457031 492.746094 53.21875 488.464844 54.898438 C 489.34375 56.285156 491.511719 59.183594 494.976562 63.597656 C 496.800781 65.609375 499.585938 68.253906 503.332031 71.550781 C 501.914062 72.097656 498.792969 73.484375 493.957031 75.707031 C 490.574219 77.351562 487.382812 78.960938 484.398438 80.550781 C 483.40625 79.410156 481.207031 76.464844 477.789062 71.726562 C 476.265625 69.378906 474.03125 65.425781 471.085938 59.878906 L 471.027344 59.878906 L 470.769531 76.550781 L 444.195312 76.550781 C 443.851562 69.734375 443.378906 58.5 442.761719 42.839844 C 442.480469 33.625 441.855469 20.863281 440.871094 4.550781 C 449.488281 3.65625 457.351562 3.214844 464.472656 3.214844 C 490.820312 3.214844 504 12.605469 504 31.386719 Z M 482.730469 41.464844 C 482.730469 38.496094 481.410156 36.378906 478.765625 35.101562 C 476.820312 34.164062 474.382812 33.757812 471.4375 33.882812 L 471.28125 49.878906 C 473.988281 49.878906 476.40625 49.304688 478.527344 48.148438 C 481.332031 46.652344 482.730469 44.421875 482.730469 41.464844 Z M 482.730469 41.464844 "/>
</g>
</svg>
